/* XPM */
static char * gfx_brick_xpm[] = {
"16 16 5 1",
" 	c None",
".	c #000000",
"+	c #550000",
"@	c #555555",
"#	c #AAAAAA",
"...++.++@+@++@@.",
"@@@@@@@@@@@@@@@.",
"@@############@@",
"@@############@@",
"@@###########@@@",
"@@###########@@@",
"+@####@@#####@@@",
"@@##@#@@#####@@@",
"@@##@@@@@@###@@@",
"@@####@######@@@",
"@@###########@@@",
"@@###########@@@",
"+@###########@@@",
"@@#######@@@@@@@",
".+@@@@@@@@@@@@@.",
"...@.@+.+++..@+."};
