/* XPM */
static char * gfx_goat_count_xpm[] = {
"28 16 51 1",
" 	c None",
".	c #FF00FF",
"+	c #DBB649",
"@	c #FFFFB6",
"#	c #FFFFDB",
"$	c #DBDB6D",
"%	c #DBDB92",
"&	c #DBB66D",
"*	c #242424",
"=	c #FFDB92",
"-	c #DB9224",
";	c #FF66FF",
">	c #FFFFFF",
",	c #FFB4FF",
"'	c #FF01FF",
")	c #FF8BFF",
"!	c #FF84FF",
"~	c #FFB8FF",
"{	c #FF6DFF",
"]	c #FF3BFF",
"^	c #FFFEFF",
"/	c #FFD0FF",
"(	c #FF06FF",
"_	c #926D00",
":	c #FF1CFF",
"<	c #FFF0FF",
"[	c #FFF8FF",
"}	c #FFE1FF",
"|	c #FFF9FF",
"1	c #FF2DFF",
"2	c #FF61FF",
"3	c #FF77FF",
"4	c #FF95FF",
"5	c #FF92FF",
"6	c #DBDB49",
"7	c #FFDBB6",
"8	c #FF47FF",
"9	c #FFC5FF",
"0	c #FFD4FF",
"a	c #FF45FF",
"b	c #FF12FF",
"c	c #FFE5FF",
"d	c #FFF5FF",
"e	c #FF24FF",
"f	c #FF2EFF",
"g	c #FFE4FF",
"h	c #FFA8FF",
"i	c #FF6BFF",
"j	c #FF70FF",
"k	c #FFA7FF",
"l	c #FF24DB",
"........+++@@###............",
"........+++@@###............",
"......++$%%&&...............",
"....++$$*$$+++..............",
"....++$$*$$+++..............",
"...+$$%%=%%%%-...;>,'.)>!...",
"...+$$%%=%%%%-...'~>{]^/(...",
".++$==%%%%%%%+_...:<[}|1....",
".++$==%%%%%%%+_....2>>3.....",
"+++=$$+++++++&&....4>>5.....",
"+$$$==66...--=7...8>90>a....",
"+$$$==66...--....bcdef|gb...",
".+++.............h>i..j>k...",
".+++........................",
"...$ll......................",
"...@........................"};
