/* XPM */
static char * gfx_heart_xpm[] = {
"16 16 25 1",
" 	c #FF00FF",
".	c #AB1B1B",
"+	c #A71C1C",
"@	c #D11A1A",
"#	c #D42121",
"$	c #BE1717",
"%	c #AD2020",
"&	c #E06767",
"*	c #D21D1D",
"=	c #AE1A1A",
"-	c #CF1717",
";	c #D01818",
">	c #CF1616",
",	c #DE4B4B",
"'	c #FEFDFD",
")	c #DE6060",
"!	c #A81C1C",
"~	c #CD1414",
"{	c #CD1313",
"]	c #D82E2E",
"^	c #CE1616",
"/	c #D31F1F",
"(	c #D01919",
"_	c #B71919",
":	c #FE00F9",
"  ....    ++++  ",
"  ....    ++++  ",
"++@@##$$%%&&**==",
"++@@##$$%%&&**==",
"++--;;>>,,''))!!",
"++--;;>>,,''))!!",
"==**~~~~{{))]]==",
"==**~~~~{{))]]==",
"  ++##^^//((__::",
"  ++##^^//((__::",
"    ++{{{{++    ",
"    ++{{{{++    ",
"      ++++      ",
"      ++++      ",
"                ",
"                "};
