/* XPM */
static char * level3_xpm[] = {
"40 30 3 1",
" 	c None",
".	c #FF0000",
"+	c #000000",
".+++++............................+++++.",
".++++++++++++++++++...+++++++++++++++++.",
".+++++++++++++++++++.++++++++++++++++++.",
".+++++++++++++++++++.++++++++++++++++++.",
".+++++++++++++++++++.++++++++++++++++++.",
".+++++++++++++++++++.++++++++++++++++++.",
".++++++++++++++++++...+++++++++++++++++.",
"........................................",
".++++++++++++++++++++++++++++++++++++++.",
".++++++++++++++++++++++++++++++++++++++.",
".++++++++++++++++++++++++++++++++++++++.",
".++++++++++++++++++++++++++++++++++++++.",
".++++++++++++++++++++++++.+++++++++++++.",
".++++++++++++++++++++++++.+++++++++++++.",
".++++++++++++++++++++++++.+++++++++++++.",
".+++............+++++++++...............",
".++++++++++++++++++++++++++++++++++++++.",
".++++++++++++++++++++++++++++++++++++++.",
".++++++++++++++++++++++++++++++++++++++.",
".++++++++++++++++++++++++++++++++++++++.",
".++++++++++++++++++++++++++++++++++++++.",
".+++............+++++++++++++++++++++++.",
".++++++++++++++++++++++++++++++++++++++.",
".++++++++++++++++++++++++++++++++++++++.",
".++++++++++++++++++++++++++++++++++++++.",
".++++++++++++++++++++++++++++++++++++++.",
".++++++++++++++++++++++++++++++++++++++.",
".++++++++++++++++++++++++++++++++++++++.",
".++++++++++++++++++++++++++++++++++++++.",
".+++++............................+++++."};
