/* XPM */
static char * level1_xpm[] = {
"40 30 2 1",
" 	c #FF0000",
".	c #000000",
"                                        ",
" ...................................... ",
" ...................................... ",
" ...................................... ",
" ...................................... ",
" ...................................... ",
" ...................................... ",
" ......           ....           ...... ",
" ................      ................ ",
" ...................................... ",
" ...................................... ",
" ...................................... ",
" ...................................... ",
" ...................................... ",
" ...................................... ",
" ...................................... ",
"        ........................        ",
" ...................................... ",
" ...................................... ",
" ...................................... ",
" ...................................... ",
" ...................................... ",
"               ..........               ",
" ...................................... ",
" ...................................... ",
" ...................................... ",
" ...................................... ",
" ...................................... ",
" ...................................... ",
"                                        "};
