/* XPM */
static char * sprite_slime_xpm[] = {
"64 24 16 1",
" 	c None",
".	c #FF00FF",
"+	c #1B601B",
"@	c #2C732C",
"#	c #3F873F",
"$	c #5DAA5D",
"%	c #327932",
"&	c #3A823A",
"*	c #7CCB7C",
"=	c #9AED9A",
"-	c #5CA85C",
";	c #2F762F",
">	c #4D984D",
",	c #4B954B",
"'	c #8FE18F",
")	c #56A256",
"................................................................",
"................................................................",
"..........++++++++++++++........................................",
"..........++++++++++++++........................................",
"........++++@@@@@@@@@@++++......................................",
"........++++@@@@@@@@@@++++......................................",
"......++++@@@@@@@@##$$%%++++............++++++++++++++++........",
"......++++@@@@@@@@##$$%%++++............++++++++++++++++........",
"......++@@@@@@@@&&**==--@@++..........++++++@@@@@@@@@@++++......",
"......++@@@@@@@@&&**==--@@++..........++++++@@@@@@@@@@++++......",
"......++@@@@@@@@@@##$$%%@@++........++++++@@@@@@;;>>>>;;++++....",
"......++@@@@@@@@@@##$$%%@@++........++++++@@@@@@;;>>>>;;++++....",
"......++@@@@@@@@@@@@@@@@@@++........++++@@@@@@@@,,'''',,@@++....",
"......++@@@@@@@@@@@@@@@@@@++........++++@@@@@@@@,,'''',,@@++....",
"......++@@@@@@@@@@@@@@@@@@++........++++@@@@@@@@%%))))%%@@++....",
"......++@@@@@@@@@@@@@@@@@@++........++++@@@@@@@@%%))))%%@@++....",
"......++@@@@@@@@@@@@@@@@@@++........++++@@@@@@@@@@;;;;@@@@++....",
"......++@@@@@@@@@@@@@@@@@@++........++++@@@@@@@@@@;;;;@@@@++....",
"......++++@@@@@@@@@@@@@@++++........++++@@@@@@@@@@@@@@@@@@++....",
"......++++@@@@@@@@@@@@@@++++........++++@@@@@@@@@@@@@@@@@@++....",
"........++++@@@@@@@@@@++++........++++++@@@@@@@@@@@@@@@@@@++++..",
"........++++@@@@@@@@@@++++........++++++@@@@@@@@@@@@@@@@@@++++..",
"..........++++++++++++++..........++++++++@@@@@@@@@@@@@@++++++..",
"..........++++++++++++++..........++++++++@@@@@@@@@@@@@@++++++.."};
